<svg width="17" height="16" viewBox="0 0 17 16" fill="none" xmlns="http://www.w3.org/2000/svg">
<path d="M7.0699 12.6855C6.0106 12.6855 4.98051 12.6855 3.92114 12.6855C3.92114 13.7978 3.92114 14.8917 3.92114 16C3.33093 16 2.76978 16 2.18614 16C2.18614 13.2771 2.18614 10.5481 2.18614 7.79924C2.74511 7.79924 3.31315 7.79924 3.91081 7.79924C3.91081 8.89173 3.91081 9.98567 3.91081 11.0938C5.88342 11.0938 7.82674 11.0938 9.79949 11.0938C9.79949 10.0067 9.79949 8.91274 9.79949 7.79919C10.3964 7.79919 10.9645 7.79919 11.55 7.79919C11.55 10.5273 11.55 13.2563 11.55 15.9999C10.9822 15.9999 10.4211 15.9999 9.83045 15.9999C9.83045 14.9127 9.83045 13.8188 9.83045 12.6855C8.90079 12.6855 7.99994 12.6855 7.0699 12.6855Z" fill="#FF8B00"/>
<path d="M0.309286 5.6916C1.36319 4.85105 2.40484 4.02904 3.43998 3.19892C4.18584 2.60078 4.92296 1.99175 5.66414 1.38778C6.08662 1.04351 6.50608 0.695332 6.93681 0.361721C6.98397 0.325194 7.11956 0.343853 7.17557 0.386986C7.65957 0.75972 8.13431 1.14445 8.61261 1.52461C9.25503 2.03521 9.90035 2.54219 10.5404 3.05578C11.1817 3.57042 11.8164 4.09337 12.4571 4.60872C12.9107 4.97347 13.3714 5.32928 13.8245 5.69451C13.9297 5.77927 14.017 5.88613 14.1275 5.99794C13.8118 6.38138 13.4938 6.76757 13.1563 7.1774C11.1138 5.53659 9.09724 3.91655 7.06074 2.28052C6.58275 2.65832 6.09612 3.04007 5.61265 3.42576C4.8363 4.04509 4.06091 4.66563 3.28722 5.28828C2.56499 5.86952 1.84797 6.4573 1.12048 7.03185C1.05678 7.08216 0.880819 7.09988 0.844173 7.05745C0.570243 6.74028 0.317546 6.40471 0.060474 6.07314C0.0329926 6.03769 0.02012 5.99093 0 5.94842C0.103181 5.86364 0.198712 5.78515 0.309286 5.6916Z" fill="#FF8B00"/>
<path d="M12.2495 2.51065C12.3307 1.82969 12.5823 1.23117 13.078 0.746737C13.558 0.277736 14.1536 0.0757933 14.7983 0.0181863C15.2065 -0.0182865 15.6206 0.0113746 16.0446 0.0113746C15.8138 1.35155 14.6724 2.35913 13.3384 2.46325C12.9841 2.4909 12.6286 2.50143 12.2495 2.51065Z" fill="#FF8B00"/>
</svg>
